<?xml version="1.0" standalone="no"?>
<!DOCTYPE svg PUBLIC "-//W3C//DTD SVG 20010904//EN"
 "http://www.w3.org/TR/2001/REC-SVG-20010904/DTD/svg10.dtd">
<svg version="1.0" xmlns="http://www.w3.org/2000/svg"
 width="292.000000pt" height="160.000000pt" viewBox="0 0 292.000000 160.000000"
 preserveAspectRatio="xMidYMid meet">

<g transform="translate(0.000000,160.000000) scale(0.100000,-0.100000)"
fill="#000000" stroke="none">
<path d="M37 1383 c-4 -3 -7 -307 -7 -675 l0 -668 233 0 c331 0 419 21 524
126 53 53 122 178 142 259 5 22 15 58 20 80 17 63 13 412 -4 460 -8 22 -15 50
-15 62 0 12 -4 24 -9 27 -5 3 -12 18 -15 32 -10 40 -71 130 -119 176 -72 69
-162 102 -321 117 -120 12 -419 15 -429 4z m450 -229 c60 -20 93 -51 126 -117
45 -89 60 -190 54 -351 -5 -154 -17 -213 -56 -295 -35 -73 -85 -114 -158 -129
-75 -15 -116 -15 -131 0 -9 9 -12 123 -12 453 0 243 3 445 7 448 12 13 122 7
170 -9z"/>
<path d="M1343 1372 c-7 -7 -13 -22 -13 -33 0 -10 -6 -36 -14 -56 -14 -39 -51
-159 -81 -268 -9 -33 -23 -78 -30 -100 -7 -22 -20 -67 -30 -100 -10 -33 -29
-92 -42 -132 -12 -39 -23 -78 -23 -87 0 -8 -6 -30 -14 -48 -8 -18 -22 -60 -31
-93 -36 -132 -90 -309 -111 -368 -8 -20 -14 -40 -14 -42 0 -3 58 -5 130 -5
l130 0 5 28 c3 15 10 41 15 58 6 17 10 38 10 48 0 35 35 136 50 141 8 3 96 3
197 -1 153 -6 183 -9 189 -23 8 -19 31 -119 44 -183 5 -27 12 -52 15 -58 4 -6
65 -10 151 -10 l144 0 -6 28 c-6 26 -48 173 -79 276 -8 26 -15 55 -15 62 0 8
-4 22 -9 32 -5 9 -17 46 -26 82 -28 105 -46 173 -55 200 -5 14 -16 52 -25 85
-9 33 -23 78 -30 100 -7 22 -20 69 -30 105 -10 36 -28 99 -40 140 -36 117 -52
173 -59 203 -4 15 -12 27 -19 27 -185 6 -272 4 -284 -8z m141 -304 c2 -7 11
-49 21 -93 10 -44 23 -102 31 -130 51 -198 68 -280 60 -294 -9 -14 -262 -15
-271 -1 -3 6 -2 25 4 43 5 17 16 59 24 92 43 173 39 158 70 298 15 67 30 97
49 97 5 0 10 -6 12 -12z"/>
<path d="M2077 1383 c-8 -7 -9 -195 -2 -215 4 -10 31 -12 119 -10 72 2 122 -1
135 -8 21 -11 21 -13 21 -560 l0 -550 140 0 140 0 0 544 c0 489 2 546 16 561
13 13 38 16 133 15 64 -1 122 -1 129 -1 9 1 12 31 12 116 l0 115 -418 0 c-230
0 -422 -3 -425 -7z"/>
</g>
</svg>
