<svg width="501" height="106" viewBox="0 0 501 106" fill="none" xmlns="http://www.w3.org/2000/svg">
<path fill-rule="evenodd" clip-rule="evenodd" d="M95.0005 42.5L48.1005 69.6C48.1005 69.6 46.0005 52.6 57.4005 44C66.8005 36.9 89.0005 25 89.0005 25" fill="#24292D"/>
<path fill-rule="evenodd" clip-rule="evenodd" d="M11.4002 70.7C12.5002 74.6 14.1002 78.3 16.2002 82C17.1002 83.6 18.1002 85.1 19.1002 86.5L0.500164 97.3C0.500164 97.3 -1.49984 80.3 9.90016 71.8C10.3002 71.5 10.8002 71.1 11.4002 70.7Z" fill="#F16623"/>
<path fill-rule="evenodd" clip-rule="evenodd" d="M120.5 40.3999C124 61.3999 112.4 87.0999 92.8997 98.3999C67.7997 112.9 35.6997 104.3 21.1997 79.1999C6.69974 53.9999 15.2997 21.8999 40.3997 7.39993C65.4997 -7.10007 97.5997 1.49993 112.1 26.5999C112.3 26.9999 114.3 30.4999 114.4 31.2999L94.0997 42.9999C93.6997 42.1999 92.3997 38.9999 91.9997 38.2999C83.8997 24.2999 65.3997 17.9999 51.3997 25.9999C37.3997 34.0999 31.3997 53.9999 39.4997 67.9999C47.5997 81.9999 68.2997 88.5999 82.1997 80.5999C86.6997 77.9999 95.0997 71.6999 98.7997 62.1999C103.9 49.0999 108.8 45.0999 120.5 40.3999Z" fill="#24292D"/>
<path d="M167.1 85.6H154.8C154 85.6 153.3 84.9 153.3 84.1V16.1C153.3 15.3 154 14.6 154.8 14.6H167.1C167.9 14.6 168.6 15.3 168.6 16.1V84.1C168.6 84.9 167.9 85.6 167.1 85.6ZM199.7 26.9H165.3C164.5 26.9 163.8 26.2 163.8 25.4V16C163.8 15.2 164.5 14.5 165.3 14.5H199.7C200.5 14.5 201.2 15.2 201.2 16V25.4C201.2 26.3 200.5 26.9 199.7 26.9ZM194.8 55.1H165.2C164.4 55.1 163.7 54.4 163.7 53.6V44.7C163.7 43.9 164.4 43.2 165.2 43.2H194.8C195.6 43.2 196.3 43.9 196.3 44.7V53.6C196.4 54.4 195.7 55.1 194.8 55.1ZM199.7 85.6H165.2C164.4 85.6 163.7 84.9 163.7 84.1V74.8C163.7 74 164.4 73.3 165.2 73.3H199.7C200.5 73.3 201.2 74 201.2 74.8V84.1C201.2 84.9 200.6 85.6 199.7 85.6Z" fill="#F16623"/>
<path d="M206.4 58.7999C206.4 53.3999 207.2 48.6999 208.8 44.6999C210.4 40.6999 212.8 37.4999 215.8 35.1999C218.9 32.8999 222.6 31.7999 227.1 31.7999C231.2 31.7999 234.7 32.9999 237.5 35.2999C240.3 37.6999 242.5 40.8999 244.1 44.9999C245.7 49.0999 246.8 53.6999 247.4 58.7999C247.4 58.8999 247.4 58.8999 247.4 58.9999V59.9999C247.4 60.0999 247.4 60.0999 247.4 60.1999C246.8 65.0999 245.7 69.4999 244.1 73.4999C242.5 77.4999 240.3 80.6999 237.5 82.9999C234.7 85.3999 231.2 86.4999 227 86.4999C222.6 86.4999 218.9 85.2999 215.8 82.9999C212.7 80.6999 210.4 77.4999 208.8 73.4999C207.2 69.4999 206.4 64.8999 206.4 59.7999V58.7999ZM221.2 59.7999C221.2 62.4999 221.5 64.9999 222.1 67.2999C222.7 69.4999 223.7 71.2999 225.1 72.5999C226.5 73.8999 228.4 74.5999 230.8 74.5999C233.1 74.5999 235.1 74.0999 236.6 72.9999C238.1 71.8999 239.2 70.4999 240 68.5999C240.8 66.6999 241.2 64.5999 241.4 62.0999V61.9999V56.9999C241.3 54.8999 241.1 52.9999 240.6 51.3999C240.1 49.7999 239.5 48.3999 238.6 47.1999C237.7 45.9999 236.7 45.1999 235.4 44.5999C234.1 43.9999 232.6 43.6999 230.9 43.6999C228.6 43.6999 226.7 44.3999 225.2 45.6999C223.8 46.9999 222.7 48.7999 222.1 51.0999C221.5 53.3999 221.1 55.8999 221.1 58.7999V59.7999H221.2ZM241.1 10.5999H252.9C253.7 10.5999 254.4 11.2999 254.4 12.0999V83.9999C254.4 84.7999 253.7 85.4999 252.9 85.4999H242.4C241.6 85.4999 241 84.8999 240.9 84.1999L239.6 73.9999C239.6 73.8999 239.6 73.8999 239.6 73.7999V12.1999C239.6 11.2999 240.3 10.5999 241.1 10.5999Z" fill="#24292D"/>
<path d="M300.3 61.9001C301.2 61.9001 301.9 62.6 301.9 63.5C301.8 67.6 301 71.3 299.8 74.6C298.4 78.3 296.2 81.3001 293.3 83.4001C290.4 85.5001 286.7 86.6 282.3 86.6C277.1 86.6 272.9 85.1 269.6 82C266.4 79 264.7 73.9001 264.7 66.9001V34.3C264.7 33.5 265.4 32.8 266.2 32.8H277.9C278.7 32.8 279.4 33.5 279.4 34.3V67.1C279.4 68.9 279.7 70.3 280.3 71.5C280.9 72.6 281.7 73.4001 282.8 73.9001C283.9 74.4001 285.1 74.7 286.5 74.7C289.3 74.7 291.6 74.1 293.2 73C294.8 71.9 296 70.4 296.6 68.5C297.1 67 297.5 65.3001 297.6 63.4001C297.6 62.6001 298.3 62 299.1 62L300.3 61.9001ZM297.6 32.8H309.3C310.1 32.8 310.8 33.5 310.8 34.3V84.1C310.8 84.9 310.1 85.6 309.3 85.6H298.4C297.6 85.6 296.9 85 296.9 84.2L296 72.9001V72.8001V34.3C296 33.5 296.7 32.8 297.6 32.8Z" fill="#24292D"/>
<path d="M334.301 105.9H322.601C321.801 105.9 321.101 105.2 321.101 104.4V34.2999C321.101 33.4999 321.801 32.7999 322.601 32.7999H333.401C334.201 32.7999 334.801 33.3999 334.901 34.1999L335.801 42.8999C335.801 42.9999 335.801 42.9999 335.801 43.0999V104.5C335.901 105.3 335.201 105.9 334.301 105.9ZM369.101 59.6999C369.101 64.7999 368.301 69.3999 366.701 73.4999C365.101 77.5999 362.801 80.7999 359.801 83.0999C356.801 85.4999 353.001 86.5999 348.501 86.5999C344.201 86.5999 340.601 85.3999 337.801 83.0999C335.001 80.6999 332.901 77.5999 331.301 73.5999C329.801 69.5999 328.701 65.1999 328.001 60.3999C328.001 60.2999 328.001 60.1999 328.001 60.1999V58.8999C328.001 58.7999 328.001 58.7999 328.001 58.6999C328.701 53.5999 329.701 48.9999 331.301 44.9999C332.801 40.8999 335.001 37.7999 337.801 35.3999C340.601 33.0999 344.101 31.8999 348.401 31.8999C352.901 31.8999 356.601 32.9999 359.701 35.1999C362.801 37.3999 365.101 40.5999 366.701 44.5999C368.301 48.5999 369.101 53.2999 369.101 58.6999V59.6999ZM354.301 58.5999C354.301 55.6999 354.001 53.1999 353.301 50.9999C352.701 48.7999 351.601 46.9999 350.201 45.6999C348.801 44.3999 346.901 43.7999 344.501 43.7999C342.701 43.7999 341.101 44.0999 339.801 44.6999C338.501 45.2999 337.501 46.0999 336.601 47.1999C335.801 48.2999 335.201 49.6999 334.701 51.2999C334.301 52.8999 334.101 54.7999 334.001 56.8999V62.1999V62.2999C334.101 64.6999 334.501 66.7999 335.201 68.6999C335.901 70.5999 337.001 72.0999 338.501 73.1999C340.001 74.2999 342.001 74.7999 344.501 74.7999C346.901 74.7999 348.801 74.0999 350.201 72.6999C351.601 71.2999 352.601 69.4999 353.201 67.1999C353.801 64.8999 354.101 62.3999 354.101 59.6999V58.5999H354.301Z" fill="#24292D"/>
<path d="M375.2 58.7001C375.2 53.6001 376.2 49.0001 378.1 44.9001C380 40.8001 382.9 37.6 386.6 35.3C390.3 33 394.9 31.8 400.2 31.8C405.6 31.8 410.2 33 413.9 35.3C417.6 37.6 420.5 40.8001 422.4 44.9001C424.3 49.0001 425.3 53.6001 425.3 58.7001V59.7001C425.3 64.8001 424.3 69.4 422.4 73.5C420.5 77.6 417.6 80.8 413.9 83.1C410.2 85.4 405.6 86.6 400.2 86.6C394.8 86.6 390.3 85.4 386.5 83.1C382.7 80.8 379.9 77.6 377.9 73.5C375.9 69.4 375 64.8001 375 59.7001V58.7001H375.2ZM390 59.8C390 62.6 390.3 65.1001 391 67.4001C391.7 69.7001 392.8 71.5001 394.3 72.8001C395.8 74.1001 397.9 74.8001 400.4 74.8001C402.9 74.8001 405 74.1001 406.5 72.8001C408 71.5001 409.1 69.7001 409.8 67.4001C410.5 65.1001 410.8 62.6 410.8 59.8V58.8C410.8 56.1 410.5 53.6 409.8 51.3C409.1 49 408 47.2 406.5 45.8C405 44.4 402.9 43.7001 400.3 43.7001C397.8 43.7001 395.7 44.4 394.2 45.8C392.7 47.2 391.6 49 391 51.3C390.3 53.6 390 56.1 390 58.8V59.8Z" fill="#24292D"/>
<path d="M447.2 85.5999H435.5C434.7 85.5999 434 84.8999 434 84.0999V34.2999C434 33.4999 434.7 32.7999 435.5 32.7999H446.4C447.2 32.7999 447.9 33.3999 447.9 34.1999L448.7 44.8999V44.9999V84.0999C448.7 84.8999 448 85.5999 447.2 85.5999ZM464.2 44.9999C464.2 45.8999 463.4 46.5999 462.5 46.4999C462.2 46.4999 461.9 46.3999 461.6 46.3999C460.6 46.2999 459.7 46.2999 459 46.2999C456.4 46.2999 454.3 46.6999 452.7 47.4999C451 48.2999 449.8 49.4999 449 50.9999C448.4 52.0999 448.1 53.2999 447.8 54.7999C447.7 55.7999 446.6 56.3999 445.7 55.9999C445.1 55.7999 444.8 55.1999 444.8 54.5999C444.9 50.3999 445.5 46.6999 446.5 43.3999C447.7 39.7999 449.4 36.9999 451.7 34.9999C454 32.9999 456.7 31.8999 460 31.8999C460.7 31.8999 461.5 31.8999 462.4 31.9999C462.7 31.9999 463 32.0999 463.2 32.0999C463.9 32.1999 464.4 32.8999 464.4 33.5999L464.2 44.9999Z" fill="#24292D"/>
<path d="M498.1 43.5H470C469.2 43.5 468.5 42.8 468.5 42V34.3C468.5 33.5 469.2 32.8 470 32.8H498.1C498.9 32.8 499.6 33.5 499.6 34.3V42C499.6 42.9 499 43.5 498.1 43.5ZM489.2 19.8C490 19.8 490.7 20.5 490.7 21.3V69.1C490.7 70.5 490.9 71.6001 491.3 72.4001C491.7 73.2001 492.3 73.7 493.1 74C493.9 74.3 494.9 74.4001 496.1 74.4001C497 74.4001 497.8 74.4001 498.4 74.3001H498.5C499.4 74.2001 500.2 74.9001 500.2 75.8001V84C500.2 84.7 499.7 85.3 499.1 85.5C498.2 85.8 497.3 86.0001 496.3 86.1001C494.9 86.3001 493.3 86.4001 491.5 86.4001C488.3 86.4001 485.6 85.9 483.3 84.8C481 83.7 479.2 82 477.9 79.7C476.6 77.4 476 74.3 476 70.5V21.3C476 20.5 476.7 19.8 477.5 19.8H489.2Z" fill="#24292D"/>
</svg>
